<svg width="271" height="36" viewBox="0 0 271 36" fill="none" xmlns="http://www.w3.org/2000/svg">
<path d="M257.17 0.0300007C240.98 12.89 230.01 8.7 230.01 8.7C230.01 8.7 245.31 19.92 266.35 7.55C266.41 7.51 257.33 0 257.33 0C257.24 0.01 257.18 0.0200005 257.18 0.0200005" fill="#F36E21"/>
<mask id="mask0_60_9061" style="mask-type:luminance" maskUnits="userSpaceOnUse" x="230" y="0" width="37" height="14">
<path d="M257.17 0.0300007C240.98 12.89 230.01 8.7 230.01 8.7C230.01 8.7 245.31 19.92 266.35 7.55C266.41 7.51 257.33 0 257.33 0C257.24 0.01 257.18 0.0200005 257.18 0.0200005" fill="white"/>
</mask>
<g mask="url(#mask0_60_9061)">
<path d="M253.164 -17.4889L220.436 7.27246L243.236 37.4092L275.965 12.6478L253.164 -17.4889Z" fill="#F36E21"/>
</g>
<path d="M234.75 8.7399C234.75 8.7399 219.47 -2.5101 198.41 9.8199C198.35 9.8599 207.42 17.3799 207.42 17.3799C207.51 17.3699 207.57 17.3599 207.57 17.3599C223.78 4.5299 234.75 8.7399 234.75 8.7399Z" fill="#002D62"/>
<path d="M252.719 23.9099C252.779 23.9099 250.499 15.3199 250.499 15.3199C250.439 15.2899 250.399 15.2699 250.399 15.2699C234.839 16.0499 229.939 8.65991 229.939 8.65991C229.939 8.65991 234.399 22.2499 252.709 23.9099" fill="white"/>
<mask id="mask1_60_9061" style="mask-type:luminance" maskUnits="userSpaceOnUse" x="229" y="8" width="24" height="16">
<path d="M252.719 23.9099C252.779 23.9099 250.499 15.3199 250.499 15.3199C250.439 15.2899 250.399 15.2699 250.399 15.2699C234.839 16.0499 229.939 8.65991 229.939 8.65991C229.939 8.65991 234.399 22.2499 252.709 23.9099" fill="white"/>
</mask>
<g mask="url(#mask1_60_9061)">
<path d="M252.759 8.05916L229.547 8.66699L229.962 24.5116L253.174 23.9037L252.759 8.05916Z" fill="#D8DCDB"/>
</g>
<path d="M22.9805 18.1201C22.9805 18.1201 24.9205 11.6201 33.5905 10.6001C33.6205 10.6001 32.6505 14.7001 32.6505 14.7001C32.6205 14.7201 32.6005 14.7301 32.6005 14.7301C25.2105 14.5501 22.9805 18.1201 22.9805 18.1201Z" fill="#002D62"/>
<path d="M151.369 18.1201C151.369 18.1201 153.319 11.6201 161.979 10.6001C162.009 10.6001 161.029 14.7001 161.029 14.7001C160.999 14.7201 160.979 14.7301 160.979 14.7301C153.589 14.5501 151.359 18.1201 151.359 18.1201" fill="#002D62"/>
<path d="M197.46 6.00989V3.38989H181.43C182.57 4.58989 182.98 5.74989 183.05 6.00989H186.76V18.0699H190.34V6.00989H197.45H197.46Z" fill="#002D62"/>
<path d="M183.039 6.0099C182.799 5.6599 181.189 3.5799 176.359 3.3999H168.079V17.2499L167.949 17.0399V18.1199H168.079H171.689V12.6399H178.139V9.8999H171.689V6.0099H183.039Z" fill="#002D62"/>
<path d="M74.1603 6.02989V3.38989H54.5903C55.8503 4.74989 56.1903 6.02989 56.1903 6.02989C56.1903 6.02989 54.9003 3.83989 50.3303 3.39989H44.9603H44.6903H42.7903C40.7103 3.39989 39.5103 4.20989 39.3803 5.73989C39.3803 5.77989 39.3603 5.79989 39.3603 5.81989C39.3603 5.81989 39.3403 9.14989 39.3603 9.41989C39.4303 10.5399 39.7303 10.8899 40.1903 11.2799C40.7503 11.7599 41.7703 11.9999 43.2403 11.9999H43.6903C43.9903 12.0199 44.2903 12.0499 44.6203 12.0499H51.6803C52.4803 12.0899 52.8803 12.2899 52.8803 12.6299V14.7499C52.8803 15.0799 52.4603 15.3199 51.6303 15.4599L38.8403 15.4899L38.8203 15.4599V18.1199H40.0603C40.0603 18.1199 40.1103 18.1199 40.1403 18.1199H52.6803C54.6903 18.1199 55.8603 17.3499 56.0603 15.9199C56.0603 15.8899 56.0603 15.8699 56.0703 15.8399C56.0703 15.8099 56.0803 15.7899 56.0803 15.7699C56.0803 15.7299 56.1003 15.7099 56.1003 15.6899C56.1003 15.6899 56.0903 15.6899 56.0803 15.6899C56.0803 15.6399 56.1003 15.5899 56.1003 15.5299C56.1003 15.5299 56.1203 11.9099 56.0803 11.5899C56.0703 11.4799 56.0403 11.3799 56.0103 11.2699C55.8703 10.6299 55.6003 10.1399 55.2703 9.83989C54.7303 9.35989 53.7203 9.11989 52.2203 9.11989H43.4703C42.9803 9.02989 42.6803 8.86989 42.5903 8.62989C42.5703 8.60989 42.5503 8.54989 42.5503 8.45989V6.62989C42.5503 6.26989 42.9603 6.06989 43.7803 6.04989L60.3203 6.01989H63.9303V18.1099H67.5403V6.01989H74.1403L74.1603 6.02989Z" fill="#002D62"/>
<path d="M109.509 9.72989V6.24989C109.509 4.34989 108.359 3.38989 106.059 3.38989H92.7891V18.1199H96.3391V9.63989V5.92989H104.519C105.609 5.92989 106.159 6.31989 106.159 7.10989V8.81989C106.159 9.60989 105.619 10.0099 104.519 10.0099H96.9491L105.929 18.1199H111.039L104.039 12.5499H106.059C108.359 12.5499 109.509 11.6099 109.509 9.72989Z" fill="#002D62"/>
<path d="M147.62 9.72989V6.24989C147.62 4.34989 146.47 3.38989 144.17 3.38989H130.9V18.1199H134.45V12.5499H134.47V10.0099H134.45V5.93989H142.63C143.72 5.93989 144.27 6.32989 144.27 7.11989V8.82989C144.27 9.61989 143.73 10.0199 142.63 10.0199H135.08L144.06 18.1299H149.14L142.14 12.5599H144.16C146.46 12.5599 147.61 11.6199 147.61 9.73989" fill="#002D62"/>
<path d="M2.89 18.1199V8.22989L9.54 16.3499H10.24L16.82 7.98989V18.1199H20.16V3.38989H17.27L10.1 12.1399L2.89 3.38989H0V18.1199H2.89Z" fill="#002D62"/>
<path d="M40.56 18.1199L31.68 3.38989H28.23L19.5 18.1199H22.98L29.73 6.74989L34.63 14.8799H34.67L35.4 16.1599L36.58 18.1199H40.56Z" fill="#002D62"/>
<path d="M168.951 18.1199L160.071 3.38989H156.631L147.891 18.1199H151.371L158.121 6.74989L163.021 14.8799H163.071L163.791 16.1599L164.981 18.1199H168.951Z" fill="#002D62"/>
<path d="M90.9691 6.0199V3.3999H70.3691V6.0399H74.9191C74.9191 6.1199 74.8991 6.1899 74.8991 6.2699V15.3099C74.8991 17.1499 76.0191 18.0799 78.2391 18.1199L90.9391 18.1299V15.3799H79.4391C78.6491 15.2799 78.2491 14.8999 78.2491 14.2299V12.5699H85.6491V10.0299H79.8891C79.8891 10.0299 79.8891 10.0299 79.8791 10.0299H78.3691L78.3491 9.9999C78.3491 9.9999 78.2791 9.9999 78.2491 9.9999V7.1799C78.2491 6.4999 78.6591 6.1199 79.4691 6.0199H90.6791H90.9591H90.9691Z" fill="#002D62"/>
<path d="M125.57 13.8099V14.6499H125.56V15.3099H115.93V6.11991H125.56V6.62991H125.57V8.33991C126.65 7.81991 127.83 7.34991 129.12 6.95991C129.12 6.83991 129.12 6.74991 129.12 6.63991H129.16C129.16 6.42991 129.13 6.25991 129.11 6.06991V5.94991C129.11 5.94991 129.1 5.93991 129.09 5.92991C128.99 5.08991 128.75 4.46991 128.34 4.11991C127.79 3.63991 126.78 3.40991 125.29 3.40991H116.1C114.61 3.40991 113.6 3.64991 113.07 4.11991C112.54 4.58991 112.27 5.51991 112.27 6.88991V14.6499C112.27 15.9999 112.54 16.9099 113.07 17.3999C113.6 17.8899 114.61 18.1299 116.1 18.1299H125.3C126.78 18.1299 127.8 17.8899 128.35 17.4199C128.89 16.9399 129.17 16.0199 129.17 14.6499V13.3699C127.86 13.4599 126.65 13.6099 125.55 13.8199" fill="#002D62"/>
<path d="M2.95023 30.6898H1.24023V35.0398H0.240234V25.5398H2.89023C4.33023 25.5398 5.67023 26.4898 5.67023 28.1198C5.67023 29.7498 4.33023 30.6998 2.94023 30.6998L2.95023 30.6898ZM2.73023 26.3998H1.24023V29.8298H2.79023C3.79023 29.8298 4.67023 29.2098 4.67023 28.1198C4.67023 27.0298 3.79023 26.4098 2.73023 26.4098V26.3998Z" fill="#F36E21"/>
<path d="M15.9102 35.0398V25.5398H16.9102V34.1798H21.3302V35.0398H15.9102Z" fill="#F36E21"/>
<path d="M35.1612 35.2098C32.9612 35.2098 31.4512 33.9098 31.4512 31.7498V25.5398H32.4512V31.6598C32.4512 33.3098 33.4512 34.3098 35.1812 34.3098C36.9112 34.3098 37.9112 33.3098 37.9112 31.6598V25.5398H38.8812V31.7498C38.8812 33.9098 37.3812 35.2098 35.1712 35.2098H35.1612Z" fill="#F36E21"/>
<path d="M59.2795 35.0398L58.8795 30.1098C58.8195 29.2898 58.7595 28.4398 58.7295 27.6398H58.6995C58.3695 28.4298 57.8995 29.3998 57.5195 30.1698L55.1095 35.1398H54.7795L52.3495 30.1698C51.9895 29.4298 51.5495 28.4898 51.1695 27.6498H51.1395C51.1095 28.4498 51.0495 29.3498 50.9895 30.1098L50.5995 35.0398H49.6895L50.4495 25.5398H51.0895L53.7095 30.8698C54.1295 31.7198 54.5695 32.6598 54.9495 33.5398H54.9795C55.3395 32.6698 55.7495 31.7998 56.1995 30.8698L58.8095 25.5398H59.4495L60.2395 35.0398H59.2695H59.2795Z" fill="#F36E21"/>
<path d="M73.87 35.0398H71V25.5398H73.34C74.67 25.5398 75.89 26.4198 75.89 27.8898C75.89 28.6498 75.49 29.3898 74.85 29.6598C75.92 29.8798 76.88 30.9598 76.88 32.2098C76.88 33.9998 75.42 35.0398 73.89 35.0398H73.87ZM73.19 26.3998H72V29.3798H73.24C74.13 29.3798 74.88 28.8398 74.88 27.8898C74.88 26.9398 74.13 26.3998 73.2 26.3998H73.19ZM73.62 30.2398H72V34.1698H73.68C74.83 34.1698 75.85 33.4598 75.85 32.1998C75.85 30.9398 74.82 30.2298 73.62 30.2298V30.2398Z" fill="#F36E21"/>
<path d="M87.7109 35.0398V25.5398H88.7109V35.0398H87.7109Z" fill="#F36E21"/>
<path d="M107.939 35.2498L103.259 29.8898C102.459 28.9698 101.589 27.9398 100.939 27.1498H100.909C100.939 28.0398 100.939 28.9398 100.939 29.7998V35.0398H99.9395V25.5398H100.639L105.049 30.5898C105.709 31.3298 106.579 32.3598 107.209 33.1398L107.239 33.1198C107.209 32.2698 107.209 31.4098 107.209 30.5998V25.5398H108.209V35.2498H107.939Z" fill="#F36E21"/>
<path d="M123.881 35.2099C121.231 35.2099 118.791 33.3299 118.791 30.2899C118.791 27.2499 121.281 25.3799 123.821 25.3799C125.071 25.3799 126.101 25.6599 126.811 26.1099L126.601 26.9899C125.901 26.5399 124.951 26.2399 123.921 26.2399C121.761 26.2399 119.801 27.7799 119.801 30.3099C119.801 32.8399 121.741 34.3299 123.941 34.3299C125.001 34.3299 125.911 34.0299 126.381 33.6899V31.3399H123.881V30.5199H127.351V34.1799C126.501 34.8399 125.321 35.2099 123.881 35.2099Z" fill="#F36E21"/>
<path d="M267.099 5.54989C266.789 5.37989 266.539 5.12989 266.359 4.81989C266.169 4.50989 266.079 4.15989 266.079 3.78989C266.079 3.41989 266.169 3.08989 266.349 2.77989C266.529 2.46989 266.779 2.21989 267.089 2.03989C267.409 1.85989 267.739 1.76989 268.099 1.76989C268.459 1.76989 268.789 1.85989 269.109 2.03989C269.419 2.21989 269.669 2.46989 269.849 2.77989C270.029 3.09989 270.119 3.42989 270.119 3.78989C270.119 4.15989 270.029 4.49989 269.839 4.81989C269.649 5.12989 269.399 5.37989 269.089 5.54989C268.779 5.71989 268.449 5.80989 268.089 5.80989C267.729 5.80989 267.399 5.71989 267.089 5.54989M269.269 5.85989C269.639 5.64989 269.929 5.36989 270.149 4.98989C270.369 4.61989 270.479 4.20989 270.479 3.77989C270.479 3.34989 270.369 2.95989 270.159 2.57989C269.949 2.20989 269.649 1.91989 269.279 1.70989C268.909 1.49989 268.509 1.38989 268.089 1.38989C267.669 1.38989 267.279 1.49989 266.899 1.70989C266.529 1.91989 266.229 2.20989 266.019 2.57989C265.809 2.94989 265.699 3.34989 265.699 3.77989C265.699 4.20989 265.809 4.61989 266.029 4.98989C266.249 5.35989 266.539 5.64989 266.909 5.85989C267.269 6.06989 267.669 6.16989 268.089 6.16989C268.509 6.16989 268.899 6.06989 269.269 5.85989ZM267.639 2.66989H267.989C268.149 2.66989 268.269 2.68989 268.329 2.73989C268.389 2.77989 268.439 2.83989 268.479 2.90989C268.509 2.97989 268.529 3.04989 268.529 3.13989C268.529 3.26989 268.489 3.39989 268.409 3.50989C268.329 3.61989 268.179 3.67989 267.969 3.67989H267.649V2.67989L267.639 2.66989ZM267.639 4.01989H267.989C267.989 4.01989 268.119 4.11989 268.229 4.30989L268.319 4.48989L268.729 5.25989H269.259L268.779 4.35989C268.659 4.14989 268.549 3.99989 268.449 3.93989C268.649 3.85989 268.789 3.73989 268.889 3.58989C268.979 3.43989 269.029 3.27989 269.029 3.10989C269.029 2.96989 268.999 2.82989 268.929 2.70989C268.859 2.58989 268.769 2.48989 268.649 2.41989C268.529 2.34989 268.359 2.31989 268.129 2.31989H267.189V5.25989H267.649V4.01989H267.639Z" fill="#002D62"/>
</svg>
